<?xml version="1.0" encoding="UTF-8" standalone="no"?>
<svg
   class="img-fluid"
   id="outputsvg"
   style="transform: matrix(1.01591, 0, 0, 1.01591, -2.89943, 15.6592); transform-origin: 50% 50%; cursor: move; transition: transform 200ms ease-in-out; max-height: 374.44px;"
   width="1024"
   height="1024"
   viewBox="0 0 10240 10240"
   version="1.1"
   sodipodi:docname="MrTooley.svg"
   inkscape:version="1.4.2 (ebf0e940d0, 2025-05-08)"
   xmlns:inkscape="http://www.inkscape.org/namespaces/inkscape"
   xmlns:sodipodi="http://sodipodi.sourceforge.net/DTD/sodipodi-0.dtd"
   xmlns="http://www.w3.org/2000/svg"
   xmlns:svg="http://www.w3.org/2000/svg">
  <defs
     id="defs12" />
  <sodipodi:namedview
     id="namedview12"
     pagecolor="#ffffff"
     bordercolor="#111111"
     borderopacity="1"
     inkscape:showpageshadow="0"
     inkscape:pageopacity="0"
     inkscape:pagecheckerboard="1"
     inkscape:deskcolor="#d1d1d1"
     inkscape:zoom="0.70710678"
     inkscape:cx="123.74369"
     inkscape:cy="389.61583"
     inkscape:window-width="2560"
     inkscape:window-height="1348"
     inkscape:window-x="0"
     inkscape:window-y="0"
     inkscape:window-maximized="1"
     inkscape:current-layer="g2" />
  <g
     id="l4eIXaNEwMzwvMMVI690m2n"
     fill="#1e1d18"
     style="display:inline"
     inkscape:label="Black">
    <g
       id="g2">
      <path
         id="pirxyaBBF"
         d="m 4832,9273 c -4,-1 -180,-4 -392,-7 -212,-4 -416,-9 -455,-11 -38,-3 -162,-9 -275,-15 -306,-14 -707,-45 -895,-70 -76,-10 -146,-17 -240,-25 -33,-3 -73,-10 -90,-15 -16,-5 -50,-12 -75,-15 -173,-27 -381,-87 -447,-130 -36,-24 -30,-60 14,-88 48,-30 188,-77 230,-77 17,0 34,-4 37,-9 7,-11 178,-44 221,-43 22,1 -10,-19 -119,-74 -348,-173 -553,-361 -617,-563 -29,-93 -29,-216 1,-294 49,-130 181,-284 309,-362 106,-64 278,-104 391,-91 206,24 360,103 509,262 70,75 84,86 102,78 18,-8 21,-20 24,-110 10,-261 105,-484 301,-706 46,-51 77,-94 71,-95 -7,-2 -167,-12 -357,-23 -190,-11 -363,-25 -385,-31 -99,-27 -163,-81 -209,-179 -30,-64 -31,-67 -34,-258 -3,-157 -7,-192 -18,-188 -7,3 -48,12 -91,21 -99,21 -156,14 -258,-30 -44,-19 -80,-35 -81,-35 -1,0 -4,75 -7,168 -8,233 -29,285 -140,332 -40,17 -71,22 -151,23 -192,1 -335,-52 -384,-143 -22,-42 -24,-52 -18,-155 4,-83 45,-410 69,-553 1,-7 -22,-25 -51,-40 -189,-97 -370,-356 -428,-612 -24,-106 -26,-128 -21,-285 5,-184 19,-257 76,-400 105,-261 305,-447 545,-510 33,-8 63,-18 67,-22 6,-8 13,-88 74,-768 14,-148 30,-373 36,-500 11,-220 11,-230 -7,-240 -11,-5 -32,-25 -49,-44 -103,-115 -110,-121 -154,-121 -37,0 -44,4 -59,31 -36,66 -73,109 -110,128 -44,23 -473,121 -528,121 -57,0 -116,-34 -181,-104 -196,-210 -240,-620 -85,-787 47,-49 47,-49 292,-125 282,-87 296,-88 412,-31 139,67 187,59 259,-44 41,-59 49,-65 126,-96 167,-68 448,-123 627,-123 371,0 732,180 954,475 72,97 145,239 145,285 0,89 -57,122 -225,128 -64,2 -151,1 -192,-3 -70,-6 -82,-11 -177,-72 -129,-83 -201,-116 -265,-121 -46,-4 -52,-2 -76,27 -32,37 -48,107 -48,205 0,89 -18,117 -85,136 -45,13 -37.9559,18.2151 -47.5,232.0021 -15,336 -49.093,553.9659 -82,1326.4659 -6,78 1.5,81.532 33.5,70.532 74,-26 185,11 255,85 22,22 36,33 33,23 -4,-10 -7,-100 -7,-200 -1,-182 -1,-182 -33,-202 -63,-39 -69,-67 -63,-275 11,-388 74,-745 154,-871 38,-60 105,-114 178,-143 33,-13 224,-65 426,-115 367,-91 367,-91 566,-91 199,0 199,0 205,-198 11,-371 60,-538 197,-672 98,-97 223,-141 452,-160 279,-22 863,-20 1243,5 442,28 646,50 730,76 79,24 171,91 213,154 71,107 98,231 89,410 -5,106 -38,391 -52,452 -6,28 -4,28 270,43 487,26 755,57 856,99 59,25 70,27 66,13 -3,-9 -18,-51 -33,-92 -36,-99 -43,-227 -20,-333 72,-324 424,-637 721,-640 85,-1 138,15 153,48 13,28 2,64 -128,410 -82,220 -82,220 -61,260 26,47 91,122 143,163 35,27 41,29 90,21 81,-13 209,-47 232,-63 15,-10 44,-83 106,-272 97,-295 112,-321 177,-309 127,23 228,151 285,360 18,66 21,106 21,235 0,140 -3,164 -27,245 -38,126 -86,207 -175,295 -85,85 -161,129 -316,185 -194,70 -245,107 -308,222 -23,44 -110,327 -343,1118 -35,121 -66,225 -69,232 -2,7 24,32 58,56 274,196 401,566 327,947 -19,101 -19,101 16,151 48,65 64,124 64,228 0,85 1,87 40,140 140,186 169,391 74,534 -56,85 -154,127 -294,128 -148,0 -296,-57 -501,-197 -62,-41 -114,-73 -116,-70 -3,2 1,31 8,63 20,95 15,266 -10,345 -43,135 -196,316 -313,371 -107,51 -232,63 -268,27 -28,-28 -25,-67 15,-204 19,-66 33,-121 31,-123 -3,-3 -175,70 -297,127 -17,8 -30,25 -38,50 -6,21 -19,44 -28,51 -27,23 -97,15 -142,-14 -40,-27 -40,-27 -313,-31 -150,-2 -350,-8 -444,-12 -172,-7 -172,-7 -162,47 14,80 52,183 88,239 42,65 132,147 195,177 50,23 50,23 65,1 37,-56 117,-130 168,-155 62,-30 188,-43 242,-24 27,9 45,7 102,-10 89,-27 182,-23 253,11 196,95 325,439 325,870 0,213 -30,384 -91,518 -31,68 -35,87 -19,77 11,-7 452,66 545,90 191,49 288,94 293,136 4,33 -20,53 -99,84 -155,61 -516,126 -889,160 -498,45 -522,47 -920,65 -295,13 -1473,31 -1508,23 z m 1998,-500 c 136,-67 175,-122 172,-242 -1,-59 -6,-81 -24,-108 -13,-18 -29,-33 -35,-33 -7,0 -13,-4 -13,-9 0,-5 10,-7 23,-4 22,5 22,5 0,-11 -34,-25 -179,-85 -273,-112 -159,-47 -322,-42 -437,12 -98,47 -195,151 -240,259 -25,59 -41,167 -32,210 5,21 7,24 8,9 1,-21 2,-21 84,7 139,47 219,56 472,55 230,-1 230,-1 295,-33 z m -3444,-92 c -10,-11 -15,-24 -12,-29 3,-5 8,-67 11,-138 7,-146 13,-194 26,-210 14,-17 -62,-78 -146,-119 -116,-56 -110,-58 -112,38 -1,89 -14,137 -37,137 -17,0 -19,-6 -41,-120 -40,-203 -150,-407 -291,-539 -190,-177 -454,-223 -658,-113 -47,25 -201,160 -193,169 2,2 46,5 98,7 205,8 448,138 644,345 329,348 450,454 629,547 92,48 106,52 82,25 z m 317,-33 c 12,0 27,-2 32,-3 35,-5 431,-33 585,-40 330,-16 1458,-12 1509,5 10,4 17,-12 26,-55 49,-226 230,-408 458,-458 38,-9 71,-17 73,-20 3,-2 -11,-28 -30,-57 -19,-29 -38,-67 -42,-83 -3,-17 -14,-32 -26,-35 -10,-2 -50,-20 -88,-38 -302,-144 -514,-452 -577,-836 -16,-97 -16,-97 -87,-102 -96,-7 -388,-22 -891,-46 -231,-11 -451,-22 -490,-26 -70,-5 -70,-5 -145,45 -186,123 -329,278 -410,446 -66,137 -84,213 -84,359 0,118 0,118 45,155 70,57 107,102 136,161 48,101 31,243 -39,317 -19,21 -20,23 -4,85 9,37 17,112 17,174 1,60 -9.7076,56.8706 7.9866,55.3795 C 3711.3576,8647.7334 3688,8650 3703,8648 Z m -273,-523 c -10,-12 -9,-15 8,-15 11,0 22,-8 25,-20 3,-11 11,-19 19,-18 9,2 12,-7 10,-32 -2,-28 0,-32 10,-22 21,21 32,13 12,-10 -32,-36 -133,-96 -215,-128 -59,-22 -95,-30 -144,-30 -80,0 -86,8 -55,89 21,58 21,58 103,90 45,17 114,49 152,70 76,43 94,49 75,26 z M 8105,5689 c 66,-24 164,-105 202,-166 109,-174 154,-352 168,-658 3,-77 8,-147 11,-156 3,-10 -21,-41 -69,-85 -127,-121 -301,-191 -502,-201 -131,-7 -199,9 -267,60 -52,40 -97,119 -105,187 -6,50 -6,50 58,50 35,0 106,7 158,15 219,36 454,149 338,163 -15,2 -100,-9 -190,-23 -194,-32 -321,-32 -377,1 -53,30 -92,111 -97,198 -2,39 0,77 4,83 5,7 44,18 88,24 177,24 422,110 438,153 13,34 -16,34 -258,-4 -164,-26 -252,-24 -292,6 -52,38 -73,81 -73,146 0,65 16,111 30,87 7,-10 22,-7 77,15 163,67 327,115 438,129 55,7 169,-5 220,-24 z m -5705,-19 c 40,-20 40,-20 40,-493 0,-464 -1,-471 -19,-432 -10,22 -23,89 -30,148 -13,119 -48,252 -85,325 -24,47 -24,47 0,82 56,81 67,201 28,313 -13,38 -14,50 -4,62 16,19 23,19 70,-5 z m 2488,-11 c 53,-6 138,-19 187,-30 146,-32 334,-97 308,-106 -17,-6 1,-24 47,-48 19,-10 39,-24 43,-32 5,-7 12,-11 16,-9 14,9 44,-58 45,-101 1,-24 -2,-43 -6,-43 -3,0 -27,9 -53,20 -25,11 -108,38 -183,60 -352,105 -733,128 -1060,63 -45,-9 -85,-13 -88,-10 -12,11 18,89 47,122 36,41 98,66 234,94 155,32 299,38 463,20 z M 1656,5285 c 98,-22 101,-23 121,-33 36,-20 65,-61 88,-125 22,-61 23,-66 7,-80 -45,-41 -122,-59 -376,-88 -112,-12 -146,-22 -146,-42 0,-20 40,-35 123,-48 134,-21 353,8 456,60 40,21 40,21 61,-6 22,-29 36,-70 26,-80 -3,-4 -6,1 -6,10 0,10 -8,17 -20,17 -11,0 -20,-4 -20,-10 0,-5 -5,-10 -11,-10 -32,0 -51,-73 -28,-105 4,-5 12,-46 17,-90 11,-92 11,-91 -73,-131 -72,-33 -168,-52 -347,-68 -86,-8 -161,-17 -167,-21 -21,-12 -11,-26 37,-47 39,-17 73,-22 194,-26 167,-5 252,9 356,58 61,29 63,29 81,11 39,-39 35,-155 -9,-240 -56,-111 -231,-183 -406,-167 -155,14 -264,65 -374,176 -192,193 -282,491 -239,795 12,86 49,217 56,197 4,-9 12,-7 31,6 59,40 185,87 257,94 96,10 248,7 311,-7 z m 5670,-340 c 8,-22 28,-65 46,-95 26,-46 31,-64 29,-111 -2,-48 15,-141 35,-194 8,-20 -46,-21 -85,0 -72,37 -156,171 -186,296 -17,75 -20,179 -4,179 6,0 22,14 36,31 14,16 40,36 57,43 31,13 31,13 44,-48 7,-34 20,-79 28,-101 z M 5574,4670 c 55,-33 124,-68 155,-77 31,-9 69,-28 84,-42 37,-33 92,-148 111,-231 35,-148 11,-360 -55,-492 -41,-81 -127,-171 -198,-206 -49,-24 -68,-27 -151,-27 -89,0 -99,2 -158,34 -82,45 -142,114 -197,226 -60,123 -76,188 -82,340 -6,146 6,213 57,322 31,67 105,150 159,178 35,18 98,32 146,34 20,0 63,-19 129,-59 z m -1554,-79 c 17,-27 37,-55 45,-61 12,-10 7,-16 -28,-34 -102,-54 -152,-234 -112,-404 46,-194 173,-302 290,-246 67,31 115,144 115,270 0,74 -29,194 -65,263 -25,51 -25,51 5,51 26,0 33,-7 55,-50 36,-72 55,-159 62,-295 7,-150 -7,-243 -53,-333 -79,-159 -228,-247 -377,-222 -163,26 -287,158 -353,375 -25,81 -28,106 -28,245 -1,144 1,160 26,228 40,110 82,168 142,199 71,36 153,62 202,62 39,1 44,-2 74,-48 z m -1701,-48 c 14,-11 34,-35 43,-54 14,-26 18,-29 19,-14 0,12 5,6 11,-15 14,-49 3,-203 -21,-281 -39,-123 -108,-187 -189,-173 -42,7 -82,29 -82,45 0,6 19,50 43,97 41,84 42,87 42,191 0,90 -3,113 -22,150 -12,25 -21,45 -20,46 1,0 18,8 37,18 43,20 103,16 139,-10 z m 1900,-459 c 40,-51 15,-144 -38,-144 -26,0 -61,42 -67,82 -13,77 60,119 105,62 z M 6144,2098 c 3,-29 9,-119 13,-200 6,-147 6,-147 -28,-181 -40,-40 -43,-40 -316,-62 -505,-40 -1111,-40 -1208,0 -52,21 -82,92 -100,236 -29,236 -31,209 18,209 23,0 245,7 492,15 248,8 556,17 685,21 129,4 237,8 239,10 2,2 48,4 101,4 97,0 97,0 104,-52 z M 1707,1748 c 0,-144 2,-168 20,-210 12,-25 32,-53 45,-61 30,-20 204,-64 326,-82 218,-33 498.0325,7.9011 642.0325,80.9011 33,16 24.9675,13.0989 27.9675,10.0989 11,-11 -209,-108 -305,-133 -194,-52 -483,-32 -744,53 -90,29 -113,40 -134,68 -27,36 -25,60 12,126 32,58 71,160 88,238 9,39 18,72 20,72 2,0 3,-73 2,-162 z"
         sodipodi:nodetypes="ccccccccccsccccccccscccsscccccsccccccccccccccccsccsccccccscscccccscsccccccccccsccccccccccccccccccccccsscccccccccsccccccccscsccccccccccccccscccccccccccsscccccccccccsccccscccccccccccccccscccccccccsccccccccscccsccsccccccccccccsccccccccccscccccsccccccccccccccsccccccccccccsccccssssccccccccsccccccccscccccscccscsccccsccccccccccccscscccccccccccccsccscscccccsccccscccscsssccccccsccsccsc" />
      <path
         id="pmWA8CUXK"
         d="M 5520.8579,4600.2808 C 5478.8579,4582.2808 5442,4502 5421,4435 c -54,-175 -4,-396 110,-484 39,-30 48,-33 95,-29 89,8 146,70 174,190 35,153 -24,385 -117,455 -36,28 -126.1421,49.2808 -162.1421,33.2808 z M 5695,4185 c 46,-45 25,-145 -30,-145 -32,0 -65,44 -65,87 0,34 36,83 60,83 6,0 22,-11 35,-25 z"
         sodipodi:nodetypes="ccccccccsssc" />
    </g>
  </g>
  <g
     id="l5rYHxtBL1myg4rfFgff25m"
     fill="#c9742d"
     style="display:inline"
     inkscape:label="BrownFront">
    <g
       id="g3">
      <path
         id="p16CjlXFYN"
         d="m 6628,6835 c -2,-2 -95,-6 -208,-9 -113,-4 -243,-8 -290,-11 -47,-3 -141,-7 -210,-10 -69,-3 -168,-7 -220,-10 -52,-3 -156,-7 -230,-10 -131,-5 -231,-10 -395,-20 -44,-3 -177,-10 -295,-15 -118,-6 -330,-17 -470,-25 -256,-15 -519,-30 -705,-40 -55,-4 -165,-10 -245,-15 -80,-5 -194,-12 -255,-15 -271,-15 -356,-25 -406,-46 -57,-25 -93,-63 -110,-117 -13,-42 -26,-1080 -28,-2197 -2,-680 -2,-680 111,-683 168,-5 909,18 930,29 16,8 15,13 -14,55 -17,25 -42,68 -55,96 -56,117 -87,349 -64,482 12,66 53,202 72,239 9,15 4,17 -53,17 -61,0 -100,12 -86,26 4,3 40,15 80,26 40,11 125,43 188,73 122,56 209,85 258,85 29,0 30,2 46,71 45,200 175,313 373,326 49,3 115,0 148,-6 64,-12 192,-70 187,-85 -1,-5 -75,-10 -165,-11 -140,-1 -171,-4 -230,-23 -207,-69 -267,-308 -108,-429 56,-43 136,-66 198,-57 60,8 158,44 219,80 54,32 74,23 50,-23 -31,-60 -162,-153 -216,-153 -11,0 -20,-1 -20,-2 0,-2 9,-25 19,-53 63,-167 67,-487 7,-654 -9,-24 -16,-47 -16,-51 0,-4 21,-6 48,-4 26,1 164,5 307,9 143,4 286,10 317,13 57,7 57,7 26,52 -43,64 -75,137 -105,248 -23,83 -27,118 -27,237 -1,161 12,222 74,352 72,148 199,247 334,260 84,8 126,-8 204,-74 139,-117 215,-134 537,-120 34,2 40,-1 40,-18 0,-28 -67,-62 -151,-76 -71,-12 -71,-12 -47,-71 72,-179 87,-398 40,-581 -15,-54 -33,-112 -42,-129 -8,-17 -15,-33 -15,-36 0,-6 338,5 565,18 88,5 221,12 295,15 74,4 173,10 220,14 85,6 85,6 88,70 2,35 -6,184 -17,330 -11,146 -23,313 -26,371 -4,58 -15,159 -26,224 -19,111 -28,324 -15,345 3,4 1,82 -4,172 -5,90 -12,205 -15,254 -12,222 -25,445 -30,501 -4,55 -9,69 -53,127 -98,128 -139,267 -127,420 6,67 29,173 51,230 6,17 -2,18 -114,16 -66,0 -122,-2 -124,-4 z M 4956,6676 c 70,-15 164,-58 191,-88 18,-21 18,-21 -22,-15 -221,34 -387,29 -549,-18 -101,-29 -96,-29 -96,-11 0,26 41,65 96,91 109,52 257,68 380,41 z m 88,-271 c 249,-72 489,-257 644,-493 70,-108 155,-288 202,-432 40,-119 80,-296 80,-350 0,-28 2,-31 23,-24 12,3 39,15 60,26 78,39 107,5 67,-77 -40,-83 -152,-135 -292,-135 -80,0 -135,15 -170,47 -26,23 -15,31 60,38 105,11 105,17 7,70 -267,146 -614,248 -932,275 -256,21 -552,-16 -785,-100 -91,-33 -258,-111 -258,-122 0,-3 23,-20 50,-37 28,-17 50,-35 50,-40 0,-5 -25,-13 -55,-16 -142,-18 -255,64 -255,184 0,54 19,62 78,31 44,-24 45,-24 76,-6 46,27 175,92 218,109 40,17 45,27 74,169 61,294 213,586 386,743 76,69 215,140 313,160 101,21 247,13 359,-20 z" />
      <path
         id="p18UG67B4z"
         d="m 7019,3686 c -2,-2 -80,-6 -174,-10 -212,-8 -368,-15 -465,-21 -41,-3 -158,-8 -260,-11 -112,-4 -197,-12 -216,-19 -17,-7 -56,-35 -86,-62 -30,-28 -81,-63 -114,-79 -53,-26 -68,-29 -159,-29 -117,1 -169,20 -269,99 -42,33 -69,46 -91,46 -18,0 -207,-7 -421,-15 -389,-16 -389,-16 -444,-66 -66,-59 -129,-94 -207,-114 -126,-33 -262,-7 -353,68 -29,23 -62,50 -73,59 -21,17 -43,17 -402,4 -209,-8 -472,-18 -585,-21 -113,-4 -213,-11 -222,-16 -27,-15 -31,-67 -19,-247 24,-348 62,-585 111,-701 27,-61 85,-116 139,-131 29,-7 151,-6 448,4 224,8 505,17 623,21 241,6 695,22 870,30 63,2 196,7 295,10 755,22 1351,44 1820,69 50,3 162,8 250,12 237,9 274,31 282,167 3,40 -5,185 -16,322 -11,138 -25,311 -31,385 -14,184 -18,199 -47,226 -23,21 -36,24 -103,24 -42,0 -79,-2 -81,-4 z m -908,-313 c 9,-22 7,-43 -11,-103 -47,-165 -158,-301 -298,-368 -75,-36 -79,-37 -197,-37 -110,0 -124,2 -175,27 -77,38 -126,81 -160,142 -31,54 -40,120 -20,157 14,25 59,25 108,0 69,-35 161,-54 237,-48 146,11 269,70 396,187 41,38 82,69 92,70 10,0 22,-11 28,-27 z M 3632,3224 c 96,-78 198,-130 275,-140 75,-9 184,10 262,46 35,17 74,30 87,30 62,0 73,-124 18,-203 -138,-195 -433,-208 -615,-25 -69,68 -139,201 -147,277 -9,102 10,104 120,15 z" />
      <path
         id="pwMG27zbA"
         d="m 7150,2483 c -41,-2 -318,-14 -615,-28 -297,-14 -605,-27 -685,-30 -80,-3 -197,-7 -260,-10 -63,-3 -209,-7 -325,-10 -115,-3 -331,-10 -480,-15 -653,-24 -853,-30 -1220,-40 -372,-10 -560,-18 -553,-25 2,-2 102,-25 223,-51 220,-49 220,-49 685,-48 411,0 1141,16 1380,29 47,2 171,7 275,10 105,3 240,7 300,10 61,3 220,10 355,15 264,11 370,16 610,30 85,5 207,12 270,16 63,3 122,8 130,9 8,1 67,6 130,10 225,13 426,43 409,59 -2,2 -86,20 -187,40 -185,37 -212,38 -442,29 z" />
    </g>
  </g>
  <g
     id="l5Y9EP8bl3OmUQneXxIQCMY"
     fill="#d7c5a0"
     style="display:inline"
     inkscape:label="BrownVeryLight">
    <g
       id="g4">
      <path
         id="py73BoMp"
         d="m 4832,9273 c -4,-1 -180,-4 -392,-7 -212,-4 -416,-9 -455,-11 -38,-3 -162,-9 -275,-15 -306,-14 -707,-45 -895,-70 -76,-10 -146,-17 -240,-25 -33,-3 -73,-10 -90,-15 -16,-5 -50,-12 -75,-15 -173,-27 -381,-87 -447,-130 -36,-24 -30,-60 14,-88 48,-30 188,-77 230,-77 17,0 34,-4 37,-9 6,-9 176,-43 225,-45 14,-1 58,13 96,30 79,35 324,127 460,172 129,43 202,55 302,50 99,-5 157,-26 216,-77 41,-37 104,-154 113,-212 6.9394,-40.8566 10.8625,-56.8873 12.1619,-72.3847 0.6016,-7.1746 1.1217,-7.4581 13.1217,-8.4581 9,-1 42.7164,-2.1572 53.7164,-3.1572 11,-2 97,-8 190,-14 94,-6 179,-13 190,-16 108,-22 1677.7611,-32.4259 1729.9656,-21.259 -0.3037,6.1818 1.6919,-5.0373 -7.9656,99.259 -10,162 61,256 242,318 143,50 489,62 890,33 435,-32 618,-70 494,-103 -21,-6 -76,-13 -123,-16 -47,-4 -91,-8 -98,-11 -7,-2 6,-21 33,-45 25,-23 62,-67 83,-98 21,-31 36.1482,-59.7011 43.1482,-61.7011 17,-4 477.8518,75.7011 553.8518,95.7011 191,49 288,94 293,136 4,33 -20,53 -99,84 -155,61 -516,126 -889,160 -498,45 -522,47 -920,65 -295,13 -1473,31 -1508,23 z"
         sodipodi:nodetypes="ccccccccccscccccccsccccccccccccsccccccc" />
      <path
         id="paX9pSrGl"
         d="m 6307,8899 c -199,-19 -343,-85 -330,-151 5,-25 5,-25 86,3 140,47 228,58 477,56 225,-2 225,-2 290,-34 136,-67 175,-122 172,-242 -1,-59 -6,-81 -24,-108 -13,-18 -29,-33 -35,-33 -7,0 -13,-4 -13,-8 0,-9 46,-7 71,3 10,3 20,1 25,-6 11,-19 -111,-128 -188,-169 -98,-52 -98,-49 -19,-86 118,-54 224,-174 256,-289 17,-63 28,-204 16,-219 -5,-6 -11,-29 -14,-51 -6,-48 -30,-117 -58,-164 -16,-27 -17,-36 -7,-42 36,-23 125,10 177,66 117,127 181,370 182,693 1,182 -13,283 -58,417 -26,80 -89,167 -104,144 -4,-8 -15,3 -27,28 -46,90 -201,163 -407,193 -82,11 -342,11 -468,-1 z" />
      <path
         id="pAWNInfbY"
         d="m 3433,8740 c -23,-22 -39.9084,-39.3846 -42.3308,-41.1544 C 3387.5042,8696.5332 3395,8691 3386,8681 c -10,-11 -16,-24 -13,-29 3,-4 9,-64 12,-133 10,-218 17,-240 59,-200 70,66 109,211 88,332 -11,64 -37,129 -52,129 -3,0 -24,-18 -47,-40 z"
         sodipodi:nodetypes="sscccccss" />
      <path
         id="pNdR1MDKv"
         d="m 3480,8177 c -56,-53 -46.8288,-24.6339 -44,-65 71.7844,-45.3562 36.9161,-108.371 84,-85 59,29 81,122 44,182 -20,30 -20,30 -84,-32 z"
         sodipodi:nodetypes="csccc" />
      <path
         id="pjXjkCn5g"
         d="m 6561,8029 c -24,-12 -57,-41 -73,-63 -30,-41 -30,-41 42,-48 155,-16 256,-100 275,-229 8,-53 -8,-120 -38,-160 -27,-37 -93,-69 -140,-69 -20,0 -37,-4 -37,-9 0,-4 19,-21 42,-37 36,-25 50,-29 113,-29 60,0 77,4 108,25 45,30 92,94 114,152 23,64 21,189 -6,260 -62,163 -272,272 -400,207 z" />
      <path
         id="pd9ZdNJuM"
         d="m 7577,7013 c -2,-5 18,-84 45,-178 68,-235 76,-290 55,-347 -70,-183 -297,-235 -436,-99 -55,54 -62,70 -130,320 -28,101 -53,186 -55,188 -7,7 -65,-83 -91,-140 -48,-105 -54,-221 -19,-347 39,-138 103,-208 299,-329 94,-58 149,-113 192,-191 20,-36 37,-66 39,-68 1,-2 19,5 41,16 21,10 92,36 158,56 66,21 126,39 133,41 8,3 12,28 12,77 0,74 19,152 58,238 34,74 55,203 49,294 -9,141 -59,247 -171,358 -56,55 -170,126 -179,111 z" />
      <path
         id="p160BqvfOs"
         d="m 8180,6160 c -45,-21 -45,-21 35,-60 77,-37 167,-112 152,-127 -4,-3 -40,4 -80,17 -141,47 -272,27 -326,-49 -27,-38 -27,-41 9,-41 34,0 57,-29 38,-48 -7,-7 -19,-12 -28,-12 -25,0 -247,-59 -345,-91 -153,-51 -288,-142 -265,-179 7,-12 19,-10 77,14 251,103 430,143 562,127 94,-12 165,-48 238,-119 138,-135 212,-371 228,-732 4,-80 -4.5937,-165.0937 -1.5937,-169.0937 7,-12 63.5937,70.0937 96.5937,143.0937 51,114 65,187 65,351 0,131 -4,163 -28,258 -31,119 -75,233 -136,354 -27,54 -37,84 -31,94 23,36 142,-72 197,-178 16,-29 33,-51 38,-50 23,8 36,81 26,142 -27,149 -139,300 -258,345 -85,33 -204,37 -263,10 z"
         sodipodi:nodetypes="ccccssssccccccccscccccccc" />
      <path
         id="pSdAemA4F"
         d="m 2019,5572 c 2,-135 7,-174 21,-202 34,-67 43,-176 21,-257 -11,-40 -10,-44 23,-87 28,-37 54,-93 72,-153 2,-8 21,-13 50,-13 47,0 47,0 40,61 -10,104 -35,179 -108,331 -39,81 -68,155 -64,163 8,23 32,18 69,-15 19,-16 37,-30 39,-30 3,0 13,18 23,40 44,98 -55,288 -170,324 -20,6 -20,2 -16,-162 z" />
      <path
         id="p17hvKlGa9"
         d="m 1322,5564 c -99,-65 -175,-156 -237,-284 -39,-83 -38,-110 4,-82 90,63 198,92 361,98 129,5 158,2 292,-30 54,-14 99,-64 123,-138 23,-71 29,-75 56,-37 51,72 32,197 -40,262 -54,49 -132,63 -343,60 -157,-2 -168,-1 -168,16 0,10 9,26 20,36 30,27 27,136 -4,134 -6,0 -35,-16 -64,-35 z" />
      <path
         id="pBX0f8jgo"
         d="m 5379.0268,5527.5692 c -17,-6 4.9732,-28.5692 50.9732,-52.5692 19,-10 40,-25 47,-34 7,-9 13,-11 13,-6 0,6 11,-7 24,-29 17,-26 23,-48 20,-70 -3,-17 -10,-40 -6,-46 11,-15 222,-103 229,-96 13,13 -54,123 -106,175 -68,68 -240.9732,168.5692 -271.9732,158.5692 z"
         sodipodi:nodetypes="ccsscccssc" />
      <path
         id="p1GMoKyM0r"
         d="m 7265,5208 c -46,-25 -86,-74 -100,-122 -8,-27 -15,-53 -15,-58 0,-17 22,-7 47,23 14,16 40,36 57,43 28,12 32,11 38,-8 4,-14 6,-5 7,25 1,26 4,61 7,78 7,34 -5,39 -41,19 z" />
      <path
         id="p17ljqizZl"
         d="m 1970,4860 c 0,-5 -5,-10 -11,-10 -32,0 -63.3617,-83.5522 -39.3617,-115.5522 4,-6 9.3143,-29.5145 12.3143,-69.5145 4,-39 25.0474,-77.9333 29.0474,-80.9333 12,-7 57,76 68,128 11,50 4,141 -10,132 -5,-3 -9,2 -9,10 0,9 2.2379,6 -8.7621,6 -11,0 -31.2379,6 -31.2379,0 z"
         sodipodi:nodetypes="sscccccsss" />
      <path
         id="phBRECqfJ"
         d="m 2142,4652 c -30,-87 -30,-92 -10,-105 12,-8 26,-6 57,7 54,25 104,15 148,-29 18,-18 33,-41 34,-51 0,-16 18.033,-55.3252 25.033,-36.3252 12,30 -48.033,197.3252 -83.033,234.3252 -27,29 -78,48 -123,48 -22,0 -28,-9 -48,-68 z"
         sodipodi:nodetypes="cccscccsc" />
      <path
         id="pOueVPQxS"
         d="m 8160,4335 c -25,-8 -78,-20 -117,-27 -40,-6 -73,-16 -73,-21 0,-5 11,-46 25,-91 13,-44 58,-198 100,-341 42,-143 93,-314 115,-380 21,-66 48,-155 61,-199 17,-56 29,-81 44,-87 18,-7 18,-8 -5,-8 -28,0 -68,30 -93,70 -18,28 -76,217 -217,712 -94,327 -94,327 -141,327 -47,0 -47,0 -33,-47 7,-27 104,-367 215,-758 125,-439 204,-733 207,-773 8,-104 -17,-173 -110,-305 -90,-126 -119,-178 -142,-256 -20,-68 -21,-179 -1,-254 46,-177 209,-372 385,-462 61,-31 159,-65 185,-65 7,0 -29,109 -86,261 -55,144 -99,274 -99,290 0,54 39,118 127,210 124,129 153,149 220,149 68,0 236,-34 306,-61 53,-21 91,-50 109,-82 5,-10 41,-109 80,-220 38,-111 76,-218 84,-237 15,-34 15,-34 55,25 61,92 90,196 96,341 6,137 -9,230 -53,324 -72,156 -191,248 -419,324 -225,75 -319,177 -389,421 -64,224 -242,839 -298,1028 -67,227 -59,216 -138,192 z m 458,-1556 c 3,-17 -26,-34 -120,-69 -32,-12 -65,-19 -75,-16 -14,6 -11,12 17,41 54,56 170,85 178,44 z" />
      <path
         id="pMZeGXo1e"
         d="m 913,2316 c 22,-56 38,-178 32,-241 -14,-149 -73,-314 -146,-406 -28,-36 -28,-36 101,-77 146,-47 168,-49 225,-23 94,42 158,170 186,372 18,130 -12,269 -64,303 -19,13 -82,29 -316,82 -18,4 -22,2 -18,-10 z" />
    </g>
  </g>
  <g
     id="lTQ2xdHot20WsOvXG9sVuh"
     fill="#84857a"
     style="display:inline"
     inkscape:label="GreyLight">
    <g
       id="g5">
      <path
         id="pLOtgapw3"
         d="m 7577,7013 c -2,-5 -1,-19 4,-33 4,-14 7,-21 8,-15 1,5 12,-6 25,-25 43,-64 91,-272 83,-361 -13,-146 -113,-252 -251,-266 -77,-8 -145,17 -205,76 -55,54 -62,70 -130,320 -28,101 -53,186 -55,188 -7,7 -65,-83 -92,-141 -24,-52 -24,-56 -10,-117 8,-35 17,-86 19,-114 11,-101 66,-202 168,-307 23,-24 138,-97 234,-149 17,-9 44,-37 60,-62 17,-25 37,-46 45,-47 9,0 3,-10 -17,-26 -33,-25 -33,-25 -12,-67 12,-23 23,-43 24,-45 2,-2 20,5 42,16 21,10 92,36 158,56 66,21 126,39 133,41 8,3 12,28 12,77 0,74 19,152 58,238 34,74 55,203 49,294 -9,141 -59,247 -171,358 -56,55 -170,126 -179,111 z" />
      <path
         id="pp6tvUfZA"
         d="m 8184,4343 c -21,-4 -21,-4 -2,-71 45,-156 60,-208 68,-232 7,-21 50,-162 81,-265 134,-445 124,-403 105,-440 -18,-34 -13,-44 -65,135 -21,74 -53,182 -70,240 -18,58 -57,191 -87,295 -31,105 -65,219 -76,254 -20,62 -21,63 -52,57 -17,-4 -50,-9 -73,-13 -24,-3 -43,-10 -43,-15 0,-6 11,-47 25,-92 13,-44 58,-198 100,-341 42,-143 93,-314 115,-380 21,-66 48,-155 61,-199 17,-56 29,-81 44,-87 19,-7 14.2236,-6.9472 -3,-8 -27,-1 -68,28 -95,67 -19,27 -19,27 -12,-13 7,-42 48,-185 71,-247 33,-91 56,-207 56,-288 1,-74 -3,-94 -29,-150 -17,-36 -58,-99 -91,-140 -127,-157 -158,-237 -148,-380 12,-183 96,-329 252,-442 44,-31 105,-69 137,-84 48,-24 59,-26 67,-14 5,8 7,17 5,20 -17,27 -145,391 -145,411 0,56 39,119 137,220 115,118 140,135 216,142 32,3 65,11 73,18 15,12 126,14 173,2 14,-3 55,-21 91,-38 88,-44 134,-97 182,-210 85,-201 101,-243 103,-278 5,-80 32,-55 71,68 35,108 44,288 20,396 -52,232 -181,359 -461,453 -225,75 -319,177 -389,421 -64,224 -242,839 -298,1028 -64,216 -60,211 -114,200 z"
         sodipodi:nodetypes="ccsccccccccscscccccccccccccccscccccccccccsc" />
      <path
         id="pgIWNZclL"
         d="m 703,2335 c -36,-15 -70,-58 -112,-142 -42,-85 -63,-179 -64,-294 -1,-82 3,-102 24,-145 27,-54 53,-67 104,-51 77,25 127,94 165,227 44,159 36,310 -21,374 -35,41 -57,47 -96,31 z" />
      <path
         id="pLFkit9xY"
         d="m 913,2316 c 3,-8 13,-50 22,-93 18,-88 13.22228,-173.3995 -14.77772,-287.3995 l -22.78301,-75.5858 C 894.55332,1850.4401 1017,1824 1099,1805 c 82,-19 173.9449,-35.7425 174.6846,-33.4899 l 1.3595,4.2087 c 6.7573,20.9203 22.5155,72.7799 35.9559,165.2812 18,129 -11,269 -64,303 -19,13 -82,29 -316,82 -18,4 -22,2 -18,-10 z"
         sodipodi:nodetypes="cccsscscccc" />
    </g>
    <path
       id="p1FlnbcFvy"
       d="m 1663,2186 c -41,-57 -105,-95 -169,-98 -27,-2 -55,-8 -61,-15 -7,-6 -18,-55 -24,-110 -12,-112 -40,-227 -69,-283 -11,-22 -20,-42 -20,-45 0,-3 19,-5 43,-5 54,-1 113,-28 156,-74 37,-38 51,-44 51,-23 0,8 18,49 39,93 36,74 50,112 84,239 13,48 14,42 14,-115 0,-146 2,-170 20,-212 12,-25 32,-53 45,-61 30,-20 204,-64 326,-82 217,-33 471.6225,-3.9107 614.6225,68.0893 31.9501,14.7503 36.2373,17.1156 54.3163,24.9832 C 2799.0316,1502.0386 2993,1655 3054,1739 c 37,51 88,143 82,149 -2,2 -62,-34 -133,-81 -70,-46 -157,-96 -193,-110 -198,-77 -384,-49 -501,74 -51,54 -93,144 -103,222 -3,26 -9,67 -12,92 -5,42 -13.1872,106.8813 -53.1872,117.8813 -59,16 -109.6897,-10.9714 -245.6897,12.0286 -64,11 -169.5425,35.3744 -181.5425,38.3744 -19,5 -24.5806,-30.2843 -50.5806,-67.2843 z"
       sodipodi:nodetypes="cccccsccsccsccccscscsccccccc"
       style="display:inline" />
  </g>
  <g
     id="l4vskinmTaHJlSAvcwcStuY"
     fill="#41403b"
     style="display:inline"
     inkscape:label="ShadowGreyDark3">
    <g
       id="g6">
      <path
         id="pEB9L0c0G"
         d="m 3210,8883 c -34,-6 -175,-47 -225,-66 -22,-8 -98,-36 -170,-62 -71,-26 -157,-57 -190,-69 -91,-34 -310,-141 -395,-193 -78,-48 -208,-144 -252,-184 -79,-75 -132,-174 -150,-280 -14,-89 -1,-112 79,-135 101,-29 202,-10 356,68 173,86 192,102 482,393 236,238 354,345 381,345 3,0 29,15 57,34 29,19 69,41 91,50 21,9 54,33 74,53 31,33 33,38 16,44 -20,8 -113,9 -154,2 z" />
      <path
         id="p6KMAUDEl"
         d="m 7190.4669,8691.3554 c -3,-7 22.5331,-58.3554 35.5331,-97.3554 30,-97 35,-186 18,-307 -22,-158 -100,-432 -141,-494 -11,-17 -13,-40 -9,-94 4,-39 2,-76 -3,-83 -5,-6 -11,-29 -14,-51 -6,-48 -30,-117 -58,-164 -16,-27 -17,-36 -7,-42 36,-23 125,10 177,66 117,127 181,370 182,693 1,182 -10.7903,315.7037 -55.7903,449.7037 -27,82 -114.7428,155.6517 -124.7428,123.6517 z"
         sodipodi:nodetypes="ccccccccccccc" />
      <path
         id="pHZSSkqq1"
         d="m 6478,2175 c -1,-2 -48,-6 -103,-10 -55,-4 -104,-11 -109,-16 -6,-5 -5,-69 2,-161 20,-261 15,-302 -45,-369 -58,-64 -103,-78 -308,-94 -289,-23 -647,-36 -970,-36 -442,0 -525,11 -592,74 -60,56 -103,206 -121,422 -7,86 -8,90 -32,92 -14,2 -69,6 -122,9 -98,7 -98,7 -98,-48 0,-127 28,-407 52,-513 14,-66 60,-156 104,-205 47,-52 140,-97 239,-115 239,-44 892,-44 1520,0 390,28 425,32 485,63 66,33 120,100 147,181 20,61 25,245 11,411 -4,47 -10,121 -13,165 -9,117 -14,142 -29,148 -8,3 -16,4 -18,2 z" />
      <path
         id="p16eljhLLW"
         d="m 4314,2028 c 4,-35 9,-107 13,-161 6,-97 22,-142 42,-122 11,11 14,92 7,165 -20,193 -17,180 -44,180 -25,0 -25,-1 -18,-62 z" />
      <path
         id="pCPiI5v9T"
         d="m 2843,1932 c -18,-9 -61,-33 -95,-53 -35,-20 -91,-51 -126,-69 -86,-44 -63,-65 53,-48 85,13 214,80 305,158 34,30 34,30 -35,30 -48,0 -80,-6 -102,-18 z" />
    </g>
  </g>
  <g
     id="l6Ik6vPxabN8eCmnp8oAECY"
     fill="#84471a"
     style="display:inline"
     inkscape:label="ShadowGreyDark2">
    <g
       id="g7">
      <path
         id="p8JsDS29v"
         d="m 7226,6753 c 57,-238 56,-235 127,-271 63,-31 115,-29 165,8 46,33 62,57 62,92 -1,28 -25,46 -110,83 -36,15 -104,45 -151,66 -47,22 -88,39 -91,39 -4,0 -4,-8 -2,-17 z" />
      <path
         id="pjbPzoAga"
         d="m 1605,6461 c -53,-10 -139,-48 -161,-72 -20,-22 -17,-80 21,-332 13,-89 33,-234 45,-322 11,-88 23,-168 26,-177 4,-15 17,-18 67,-18 64,0 223,-16 266,-27 24,-6 24,-6 17,188 -3,107 -9,266 -12,354 -3,88 -9,209 -13,269 -10,140 -17,147 -135,145 -44,-1 -99,-5 -121,-8 z" />
      <path
         id="pGPyDlnqb"
         d="m 7094,5983 c 3,-27 12,-187 21,-358 9,-170 18,-320 21,-332 4,-22 4,-22 41,3 20,13 47,27 61,31 25,6 25,7 -2,78 -20,52 -20,143 0,190 8,21 37,61 63,89 78,86 76,77 42,144 -17,34 -47,72 -68,89 -44,35 -167,113 -177,113 -4,0 -5,-21 -2,-47 z" />
      <path
         id="pzpYjvwrf"
         d="m 7183,4450 c 4,-47 12,-159 17,-250 6,-91 15,-187 20,-213 6,-26 10,-67 10,-90 0,-62 9,-84 38,-96 26,-11 450,-104 545,-120 41,-7 47,-6 43,8 -3,9 -12,41 -20,71 -51,186 -120,432 -133,475 -18,59 -44,90 -98,117 -22,11 -50,29 -62,40 -18,17 -37,20 -110,22 -99,2 -143,19 -215,84 -41,37 -41,37 -35,-48 z" />
      <path
         id="p5vItwddd"
         d="m 7122,3969 c -2,-26 -3,-26 -104,-32 -57,-4 -116,-9 -133,-11 -16,-3 -100,-7 -185,-11 -85,-3 -245,-12 -355,-19 -110,-7 -230,-12 -266,-12 -66,1 -66,1 -84,-62 -10,-34 -22,-65 -26,-68 -47,-29 105,-30 561,-4 91,5 215,11 275,15 258,13 317,18 321,30 3,6 3,54 1,106 -1,52 -4,82 -5,68 z" />
      <path
         id="p11IYUnHyQ"
         d="m 4819,3826 c -2,-3 -63,-6 -134,-7 -175,-3 -215,-8 -215,-25 0,-8 -4,-14 -8,-14 -7,0 -42,-94 -42,-112 0,-3 21,-4 48,-2 26,1 164,5 307,9 143,4 286,10 317,13 57,7 57,7 17,67 -21,33 -39,63 -39,67 0,8 -243,11 -251,4 z" />
      <path
         id="pkKEnwOCR"
         d="m 3460,3799 c 0,-22 -61,-27 -430,-34 -340,-6 -459,-10 -465,-16 -2,-2 -5,-33 -6,-69 -3,-65 -3,-65 112,-68 169,-5 910,18 931,29 15,8 13,15 -21,67 -21,31 -41,67 -45,80 -6,18 -14,22 -42,20 -19,-1 -34,-5 -34,-9 z" />
      <path
         id="p32gELuGR"
         d="m 7324,3646 c 3,-17 10,-101 16,-186 6,-85 20,-270 31,-410 26,-314 26,-361 1,-411 -23,-46 -36,-40 143,-69 142,-24 401,-75 425,-84 25,-10 114,76 140,135 36,86 26,177 -50,444 -34,121 -77,274 -96,339 -19,66 -37,123 -42,128 -4,4 -135,38 -291,76 -283,69 -283,69 -277,38 z" />
    </g>
  </g>
  <g
     id="l2DBN1A8YxOQcMnFPiCTh26"
     fill="#de8e41"
     style="display:inline"
     inkscape:label="ShadowBrownLight">
    <g
       id="g8">
      <path
         id="p3WvbjinM"
         d="m 2576,6363 c -8,-137 -21.5941,-2508.9958 -13.5941,-2501.9958 10.493,4.7761 34.0901,12.96 65.9445,42.675 14.4328,16.8317 20.8667,54.9655 21.7746,100.2583 9.638,786.9614 32.3009,1581.4733 6.875,2365.0625 -10.7823,35.8701 -19.6888,-1.0117 -53.045,93.3068 -5.1562,12.9375 -15.4895,7.6691 -17.8266,4.5203 C 2583.7444,6463.6151 2580,6416 2576,6363 Z"
         sodipodi:nodetypes="ccccccsc" />
      <path
         id="pULozzzqh"
         d="m 4107,4852 c -25,-61 -22,-139 6,-193 46,-87 166,-148 264,-133 93.1651,23.8474 185.1099,45.8513 206.5329,85.5189 8.8601,16.4055 16.9871,35.5715 -23.5329,57.4811 -51.9463,28.0879 -110.543,-56.1824 -254,15 -133.9056,94.2646 -159.3779,152.727 -178,194 -2,11 -9,2 -21,-26 z"
         sodipodi:nodetypes="cccssccc" />
      <path
         id="pJe4c6c0x"
         d="m 5575,4847 c -18.3125,-17.0268 -28,-42 32,-92 115,-94 198,-120 378,-116 213,5 192,1 204,45 -7.4016,17.9881 -24.096,36.2538 -69.2189,40.6519 -53.2142,-7.7501 -104.9875,-10.6496 -160.2588,-10.8305 -173.1738,5.7813 -206.7999,65.1622 -267.7812,140.3706 -17.8219,12.7299 -10.1528,18.2231 -53.7277,18.2231 -51.358,0 -55.0139,-16.3135 -63.0134,-25.4151 z"
         sodipodi:nodetypes="cccccccsc" />
      <path
         id="puAzJGMz4"
         d="m 1885,3929 c -44,-16 -106,-31 -138,-35 -57,-7 -57,-7 -52,-58 3,-28 14,-145 25,-261 11,-115 22,-235 25,-265 34,-354 55,-675 55,-830 0,-127 0,-127 78,-143 135.6248,-12.5304 167.75,-6.875 174.75,4.125 26,42 8.25,445.875 -52.75,1163.875 -6,66 -13,195 -16,288 -3,92 -9,167 -13,166 -3,-1 -42,-14 -86,-30 z"
         sodipodi:nodetypes="sccccscccccs" />
      <path
         id="pWr1iMv3k"
         d="m 2490,3400 c -16.0187,-8.2393 -26.8125,-18.0964 -29,-35 -15,-64 27,-494 64,-659 30,-134 58,-198 106,-240 62,-57 74,-58 526,-42 224,8 505,17 623,21 241,6 695,22 870,30 63,2 196,7 295,10 755,22 1351,44 1820,69 50,3 162,8 250,12 246,10 279,32 280,183 0,79 -2,86 -20,86 -11,0 -31,-12 -43,-27 -13,-16 -30,-28 -38,-28 -8,0 -14,-4 -14,-10 0,-5 -15,-25 -34,-43 -38,-38 -104,-59 -171,-56 -22,1 -78,-1 -125,-4 -47,-4 -164,-9 -260,-12 -96,-4 -202,-8 -235,-11 -77,-6 -354,-7 -380,-1 -11,2 -33,0 -50,-5 -45,-14 -187,-23 -463,-30 -88,-2 -156,-8 -160,-13 -8,-12 -22,-13 -37,-3 -5,3 -77,7 -159,7 -82,1 -153,4 -158,7 -4,3 -8,1 -8,-5 0,-5 -21,-9 -47,-8 -27,1 -75,-2 -108,-5 -92,-11 -769,-25 -950,-20 -16,0 -68,-2 -115,-4 -80,-5 -264,-13 -320,-14 -14,0 -171.4016,-6.1518 -228.6515,-9.7143 -235.2836,-12.5533 -288.1053,-30.4025 -385.8574,4.0982 -66,22 -111.4911,68.6161 -141.4911,126.6161 -40,79 -81,329 -88,539 -2,74 -7,147 -11,162 -7,27 -30.4881,36.7858 -55,28 z"
         sodipodi:nodetypes="cccccccccccscssccccccccccccsccccccccccc" />
    </g>
  </g>
  <g
     id="l4aPcTMs3REyB2ON5F1gsug"
     fill="#63635c"
     style="display:inline"
     inkscape:label="ShadowsGreyDark">
    <g
       id="g9">
      <path
         id="p12kG0GGZg"
         d="m 7795,6139 c -38,-39 -95,-79 -165,-114 -111,-55 -136,-68 -167,-92 -33,-24 -33,-24 -12,-66 12,-23 23,-43 24,-45 2,-2 20,5 42,16 21,10 92,36 158,56 66,21 126,39 133,41 8,3 12,28 12,79 0,41 5,87 10,101 6,15 6,33 2,41 -6,11 -14,8 -37,-17 z" />
      <path
         id="pjPLaJ5Pj"
         d="m 8028,4307 c -32,-6 -58,-14 -58,-20 0,-5 11,-46 25,-91 13,-44 58,-198 100,-341 42,-143 93,-314 115,-380 21,-66 48,-155 61,-199 19,-62 25.4297,-81.875 44.4297,-88.875 22.2518,-9.4234 36.0044,-10.0435 53.5703,-8.125 13.8125,16.6875 12,22 26,33 43,33 39,51 -94,498 -18,58 -57,191 -87,295 -87,297 -93,315 -112,314 -9,-1 -43,-6 -74,-12 z"
         sodipodi:nodetypes="cscsccccccccc" />
      <path
         id="pxDFwkvCj"
         d="m 914,2312 c 4,-11 13,-50 21,-87 7,-37 7.31061,-68.2094 9.31061,-69.2094 5,-4 370.19349,-89.3873 368.70839,-76.4724 C 1310.7414,2099.1246 1307,2140 1285,2193 c -24,59 -24,59 -353,133 -20,4 -23,2 -18,-14 z"
         sodipodi:nodetypes="cccsccc" />
      <path
         id="p8n8WOwd2"
         d="m 1663,2186 c -41,-58 -105,-95 -169,-98 -27,-2 -54,-8 -61,-14 -7,-7 -17,-54 -23,-105 -6,-52 -15,-114 -21,-138 -5,-24 -8,-45 -5,-48 2,-2 33,-10 69,-18 35,-7 92,-27 126,-44 61,-31 61,-31 72,-4 6,16 22,75 35,133 32,135 80,320 89,342 15.7155,43.8193 16.2562,42.3136 -13.7438,50.3136 -61.6587,19.7002 -65.2801,8.4576 -68.2801,8.4576 -3,0 -12.9761,-40.7712 -29.9761,-64.7712 z"
         sodipodi:nodetypes="cccccsccccccsc" />
      <path
         id="pXwvevQMQ"
         d="m 797,1667 c -25,-34 -25,-34 104,-75 71,-23 140,-42 154,-42 50,0 135,47 135,74 0,7 -24,17 -52,24 -29,7 -91,21 -138,31 -47,11 -106,20 -131,20 -41,1 -50,-3 -72,-32 z" />
      <path
         id="pC2QzHCDP"
         d="m 4015,1630 c 8,-90 23,-145 57,-213 60,-120 151,-184 303,-212 239,-44 892,-44 1520,0 377,27 425,33 482,61 92,44 153,142 159,254 2,36 0,56 -4,45 -15,-41 -92,-151 -124,-176 -101,-79 -156,-90 -588,-114 -151,-8 -313,-17 -359,-20 -277,-17 -946,-1 -1080,26 -143,29 -266,128 -310,249 -7,19 -17,44 -22,55 -5,11 -16,40 -24,65 -15,45 -15,45 -10,-20 z" />
    </g>
  </g>
  <g
     id="l7fH99ChhBC2kCsB4YpylcB"
     fill="#aa6c34"
     style="display:inline"
     inkscape:label="ShadowsBrownMed">
    <g
       id="g10">
      <path
         id="pCdlOiTpq"
         d="m 1605,6461 c -53,-10 -139,-48 -161,-72 -20,-22 -17,-80 21,-332 13,-89 33,-234 45,-322 11,-88 23,-168 26,-177 4,-15 17,-18 67,-18 63,0 223,-16 264,-26 23,-6 23,-6 21,117 0,72 -4,107 -7,84 -6,-39 -7,-40 -48,-41 -41,-1 -41,-1 -47,110 -3,61 -8,199 -11,307 -5,196 0,273 16,247 7,-10 9,-8 9,6 0,13 5,17 18,14 45,-12 53,66 9,97 -23,16 -145,19 -222,6 z" />
      <path
         id="p1HXUlyHHt"
         d="m 1875,3927 c -49,-17 -91,-32 -93,-33 -1,0 4,-73 13,-160 8,-88 17,-188 20,-224 3,-36 10,-101 15,-145 5,-44 12,-118 15,-165 3,-47 12,-155 20,-240 21,-234 29,-391 19,-389 -5,1 -24,1 -43,0 -25,-1 -34.4307,-6.7678 -36.7227,-16 -4.7529,-30.661 -3.9978,-71.3264 -4.2773,-108 0,-94 10.625,-83.375 88.625,-99.375 121.5,-13.0414 157.125,-17.5 164.125,-6.5 26,42 8.25,445.875 -52.75,1163.875 -6,66 -13,195 -16,288 -3,92 -9,166 -13,166 -3,-1 -46,-15 -96,-32 z"
         sodipodi:nodetypes="cccssscsccscccccc" />
    </g>
  </g>
  <g
     id="l1WoNJxt5bjTKMDcGNFBY7t"
     fill="#c5543d"
     style="display:inline"
     inkscape:label="Tongue">
    <g
       id="g11">
      <path
         id="peCQP8AbP"
         d="m 4680,6294 c -78,-21 -150,-58 -187,-96 -30,-31 -32,-36 -23,-70 15,-54 98,-131 186,-174 63,-30 90,-37 160,-42 46,-2 84,-2 84,2 0,4 -18,38 -40,76 -73,125 -50,132 65,21 144,-138 273,-191 433,-177 62,5 187,31 200,42 8,6 -66,102 -130,170 -118,124 -254,206 -407,245 -90,23 -260,25 -341,3 z" />
    </g>
  </g>
  <g
     id="l1lmwtvrZIXGTw2Xms1EjrW"
     fill="#643c1a"
     style="display:inline"
     inkscape:label="ShadowsBrownDark">
    <g
       id="g12">
      <path
         id="pl5Rym0Ml"
         d="m 1605,6460 c -94,-17 -93,-27 4,-32 108,-6 138,-22 157,-84 10,-31 12,-34 13,-14 1,20 3,22 11,10 8,-13 10,-12 10,4 0,13 5,17 18,14 45,-12 53,66 9,97 -23,16 -146,19 -222,5 z" />
      <path
         id="p5C88B6Fp"
         d="m 1882,5715 c -2,-40 -2,-40 -44,-41 -24,-1 -72,2 -108,7 -36,5 -96,10 -135,12 -70,2 -70,2 -69,-48 1,-104 -3,-101 131,-108 65,-4 142,-11 172,-17 30,-5 56,-8 58,-6 2,2 2,57 0,122 -1,66 -4,101 -5,79 z" />
      <path
         id="pkzTKtBou"
         d="m 7482,3941 c -23,-25 -23,-25 -95,-12 -158,28 -148,29 -146,-15 1,-22 6,-56 11,-76 7,-32 14,-39 46,-47 91,-24 563,-122 562,-117 0,1 -14,48 -30,106 -16,58 -29,101 -29,96 -1,-6 -6,-5 -13,2 -19,19 -30,14 -18,-7 14,-27 13,-36 -5,-21 -8,6 -20,10 -27,7 -7,-2 -24,0 -37,5 -13,5 -40,11 -60,14 -20,3 -51,12 -69,20 -18,7 -40,10 -49,7 -13,-5 -15,-3 -9,13 5,10 10,28 13,39 4,15 2,17 -5,6 -5,-7 -11,-9 -13,-4 -2,5 -14,-2 -27,-16 z" />
      <path
         id="p18s6mt9Am"
         d="m 1941,3949 c -15,-6 -21,-14 -17,-25 3,-8 15,-70 26,-137 11,-67 24,-142 29,-167 8,-44 9,-43 10,26 1,99 -11,314 -18,313 -3,0 -17,-5 -30,-10 z" />
      <path
         id="p4sVL6hGp"
         d="m 1800,2419 c 0,-66 0,-66 78,-82 121.1875,-13.4375 180.3401,-17.8125 187.3401,-6.8125 3,6 -3.3401,25.8125 -1.3401,58.8125 3,58 2,62 -20,66 -13,3 -36,8 -51,11 -16,3 -65,9 -110,13 -83,7 -83,7 -83,-60 z"
         sodipodi:nodetypes="sccccccs" />
    </g>
  </g>
  <g
     id="g24"
     style="display:inline"
     inkscape:label="White">
    <path
       style="fill:#ffffff;fill-opacity:1;stroke-width:0;stroke-linecap:round;stroke-linejoin:round;stroke-opacity:0.964377"
       d="m 168.80499,185.86248 c -3.29358,-13.62354 -4.01281,-15.06221 -8.56907,-24.66543 -3.2515,-6.85319 -6.52471,-7.0091 -6.14294,-7.48613 1.10251,-1.37764 4.59017,-7.26691 6.10307,-8.38223 2.3796,-1.75426 7.76602,-4.21584 16.98009,-6.84861 26.0546,-7.44465 53.76144,-9.4731 71.95067,-2.60907 26.82479,10.12281 27.48824,11.5998 27.98723,13.14671 0.14774,0.45804 -3.12704,-1.1295 -5.51638,-2.33564 -13.91789,-7.02572 -39.51298,-10.27662 -61.01838,-7.21094 -12.30055,1.75349 -30.35949,6.2666 -33.5751,8.39076 -1.44262,0.95296 -3.85424,4.89237 -4.79566,7.48597 -1.08078,2.97749 -1.14069,5.94946 -1.18517,14.37454 -0.0223,4.22677 -0.12031,15.42181 -0.53868,18.73762 l -0.36066,2.85844 z"
       id="path12"
       sodipodi:nodetypes="ssssssssssssscs"
       transform="scale(10)" />
    <path
       style="fill:#ffffff;fill-opacity:1;stroke-width:0;stroke-linecap:round;stroke-linejoin:round;stroke-opacity:0.964377"
       d="m 787.35386,571.14607 c -10.54272,-1.28985 -24.12034,-4.68083 -42.30866,-11.83621 -5.46486,-2.1499 -7.90213,-2.6656 -8.2788,-1.68403 -0.28839,0.75156 -1.00516,-0.0659 -1.50264,-1.02788 -0.73063,-1.41289 -2.04763,-4.60112 -2.02793,-8.21172 0.032,-5.87188 1.98654,-10.09759 5.66363,-13.4411 3.44319,-3.13084 6.64808,-4.24083 13.70139,-4.23583 4.97184,0.004 10.37003,0.32096 20.47797,1.86209 11.83105,1.80384 14.44536,2.3006 18.81647,2.64734 3.40055,0.26975 3.92269,0.43812 3.92269,-1.13815 0,-2.54166 -5.60726,-5.09082 -17.57198,-9.11124 -7.8276,-2.63026 -15.81341,-4.75271 -24.04619,-6.1466 -6.93794,-1.17467 -9.79124,-1.88019 -10.83637,-2.64663 -0.58975,-0.43248 -0.68602,-1.0561 -0.6559,-6.35869 0.0267,-4.70038 0.61031,-7.07076 1.16557,-9.11217 1.38452,-5.09025 3.10405,-8.11963 5.75581,-10.82767 2.00819,-2.05082 4.00382,-3.17827 7.09776,-4.04581 2.31331,-0.64866 3.48709,-1.3622 11.0872,-1.34587 8.89428,0.0191 9.40365,0.49121 27.69706,3.21442 8.7953,1.30927 14.90806,2.1611 16.13463,1.50554 1.34234,-0.71743 1.03998,-1.62446 -0.48651,-3.0337 -2.51444,-2.32133 -11.08077,-5.94156 -19.10192,-8.4326 -10.39649,-3.22873 -20.2805,-4.93348 -32.17811,-5.47439 -5.54226,-0.25197 -6.14669,-0.75847 -6.14669,-2.95285 0,-6.87244 4.78046,-16.86693 10.63658,-21.295 2.63068,-1.98917 7.61766,-4.24198 10.8213,-5.0574 4.61746,-1.17527 15.35689,-1.3171 23.25607,-0.30953 18.52722,2.3632 37.21856,10.17683 47.83673,23.95556 3.37496,4.37953 3.6337,4.814 3.23597,9.38287 -0.17816,2.0466 -1.05961,5.0991 -1.24459,8.85775 -1.13239,23.00849 -3.839,40.11786 -8.85789,52.78239 -1.86096,4.69589 -6.64394,11.80257 -8.969,15.06591 -2.53262,3.55463 -6.81568,8.72123 -10.46776,11.4873 -3.37228,2.55414 -9.24755,5.51277 -12.67771,6.38582 -5.59459,1.42393 -14.14907,1.28758 -19.94818,0.57808 z"
       id="path13"
       transform="scale(10)"
       sodipodi:nodetypes="sssssscssssssssssssssssssssssssssss" />
    <path
       style="fill:#ffffff;fill-opacity:1;stroke-width:0;stroke-linecap:round;stroke-linejoin:round;stroke-opacity:0.964377"
       d="m 725.66825,509.70417 c -1.76425,-0.76682 -3.97588,-2.20271 -6.68211,-4.88441 -1.43292,-1.41993 -3.29119,-1.61519 -3.55945,-1.61519 -0.77443,0 -0.73495,-2.68514 -0.67531,-7.61925 0.0644,-5.33141 0.9469,-10.81796 2.40973,-15.38459 3.87252,-12.08924 12.39822,-23.68529 19.04374,-26.57356 1.87715,-0.81585 6.0085,-1.10617 6.86696,-0.63935 0.95042,0.51684 1.88314,1.84408 1.16084,4.23016 C 742.44133,463.13555 740.1,468.65494 740.1,473.9 c 0,4.5742 -0.25668,6.18516 -2.16409,9.76556 -4.65754,8.74268 -5.61717,11.97838 -7.49953,19.92599 -0.62109,2.62232 -0.69739,3.31188 -0.60236,6.06694 0.0368,1.06763 -2.55526,0.74568 -4.16577,0.0456 z"
       id="path14"
       transform="scale(10)"
       sodipodi:nodetypes="ssssssssssssss" />
    <path
       style="fill:#ffffff;fill-opacity:1;stroke-width:0;stroke-linecap:round;stroke-linejoin:round;stroke-opacity:0.964377"
       d="m 392.46537,464.00685 c -5.49209,-0.59917 -15.80203,-4.27525 -20.42524,-7.33845 -3.04998,-2.02082 -5.73447,-5.20595 -8.00841,-9.32675 -2.2665,-4.10733 -5.10081,-11.46767 -6.01691,-15.48671 -0.64106,-2.81236 -0.99442,-10.37533 -0.77302,-21.31781 0.23147,-11.4403 0.90321,-13.12036 3.57488,-21.37179 5.25623,-16.23383 13.41435,-27.49157 24.48043,-33.01509 5.66524,-2.82774 12.49255,-4.20644 18.0757,-3.63104 12.20595,1.25795 23.10325,9.20712 29.75923,21.79044 4.5199,8.54499 6.11525,16.87627 5.81776,30.23232 -0.29501,13.24447 -1.72076,22.60611 -4.74628,30.13428 -1.33546,3.32294 -2.7551,5.92359 -3.85456,7.12835 -0.77158,0.84547 -1.1599,1.08807 -2.22082,1.25322 -1.5921,0.24784 -3.51624,0.044 -3.6009,-0.47362 -0.14586,-0.89169 0.42841,-2.28813 1.29492,-4.11373 3.09561,-6.52192 5.05426,-12.03174 6.36872,-19.72154 0.64359,-3.7651 0.79221,-10.53234 0.21038,-14.23731 -1.55845,-9.92393 -5.43334,-17.05241 -10.84021,-19.7818 -2.16247,-1.0916 -3.57121,-1.45204 -6.28093,-1.46347 -2.81392,-0.0119 -4.69487,0.53322 -7.27368,1.88247 -7.31515,3.82731 -13.42267,13.9842 -15.74602,25.96584 -1.89532,9.77425 -0.83906,20.31787 2.79423,28.1476 2.45835,5.29773 5.13869,7.81326 10.49158,10.81854 2.00416,1.1252 2.48113,2.22502 1.0366,3.84393 -0.66574,0.74611 -2.65931,3.1649 -3.97103,5.13203 -2.29332,3.43918 -3.57551,4.31203 -4.59229,4.69861 -0.84293,0.32048 -3.59675,0.46503 -5.55413,0.25148 z"
       id="path15"
       transform="scale(10)"
       sodipodi:nodetypes="sssssssssssssssssssssssssss" />
    <path
       style="fill:#ffffff;fill-opacity:1;stroke-width:0;stroke-linecap:round;stroke-linejoin:round;stroke-opacity:0.964377"
       d="m 543.77209,473.22596 c -4.44889,-0.38608 -9.6631,-1.57685 -12.71782,-2.82747 -2.35133,-0.96265 -4.74299,-2.63589 -7.50755,-5.29841 -4.9142,-4.73281 -8.12725,-9.33203 -10.54065,-14.70468 -4.01546,-8.93914 -5.10942,-14.69899 -5.08761,-25.39906 0.0369,-18.09073 1.80736,-26.77151 8.48915,-40.12611 6.07164,-12.13514 12.21766,-18.52333 21.97508,-23.3121 3.83384,-1.88159 4.79973,-2.05789 13.11857,-2.05789 4.75737,0 7.07013,-0.16353 9.57784,0.14061 2.10614,0.25544 5.92465,1.96575 8.39347,3.43137 5.54129,3.2896 12.39079,10.36452 16.43877,16.9374 3.71814,6.0373 6.33305,15.57494 7.73702,26.411 0.51614,3.98364 0.55873,15.99792 0.0866,19.35021 -1.04093,7.3908 -2.99795,13.62783 -6.38608,20.43459 -4.18645,8.41056 -6.29529,10.64341 -13.61178,13.21713 -4.54876,1.60011 -9.78715,4.1379 -16.40738,8.04865 -7.17162,4.23648 -11.29201,5.95138 -13.55762,5.75476 z m 16.69857,-13.86273 c 2.5322,-0.59668 5.7281,-1.94467 7.41361,-3.07201 9.7797,-6.54106 15.58741,-30.35804 11.45361,-46.22921 -1.76945,-6.79358 -4.63226,-11.82099 -8.44238,-14.53983 -2.89889,-2.0686 -5.13793,-2.98196 -9.31814,-3.20847 -3.89822,-0.21123 -4.98462,0.37629 -9.00106,3.63213 -5.71107,4.62955 -9.86203,13.10521 -11.60426,23.5005 -0.60342,3.60044 -0.83398,10.67001 -0.46149,14.27568 0.58045,5.61861 1.69681,10.25344 3.67411,14.20934 2.968,5.93795 5.89001,10.75015 9.81479,11.88528 2.14138,0.61933 3.74141,0.18983 6.47121,-0.45341 z"
       id="path17"
       transform="scale(10)"
       sodipodi:nodetypes="sssssssssssssssssssssssssssss" />
    <path
       style="fill:#ffffff;fill-opacity:1;stroke-width:0;stroke-linecap:round;stroke-linejoin:round;stroke-opacity:0.964377"
       d="m 430.6843,561.84782 c -5.72278,-1.62599 -10.54931,-4.79301 -12.53099,-7.10481 -2.08061,-2.42722 -4.36944,-8.35714 -4.2108,-10.79242 l 0.0363,-1.93968 4.32673,0.24902 c 1.08167,0.0623 2.20752,0.55393 5.52362,1.16392 25.82447,4.75036 54.02789,4.51223 81.7882,-0.68747 14.79717,-2.77162 31.93801,-8.25284 44.48704,-12.79939 l 3.12536,-1.32899 0.17569,3.02763 c 0.0735,1.26614 0.39698,3.73618 0.0995,5.19442 -1.05657,3.4506 -2.67081,6.12042 -5.38182,8.18278 -2.11693,1.61043 -4.56042,2.8188 -6.282,3.82426 -3.65357,2.1338 -1.82847,3.30751 -3.05914,4.00793 -0.71254,0.40553 -1.12273,0.60428 -3.27618,1.55729 -4.16626,1.84379 -15.73876,5.97018 -23.50582,7.69572 -31.55412,7.0101 -46.03666,4.7033 -46.03666,4.7033 -11.35319,-0.44418 -24.33081,-1.98906 -35.27904,-4.95351 z"
       id="path19"
       transform="scale(10)"
       sodipodi:nodetypes="ssscsssscssssssssss" />
    <path
       style="fill:#ffffff;fill-opacity:1;stroke-width:0;stroke-linecap:round;stroke-linejoin:round;stroke-opacity:0.964377"
       d="m 339.77486,812.25063 c 0,0 -13.03982,-6.78547 -17.6599,-8.63746 -9.64316,-3.86554 -9.43661,-0.74015 -12.77157,-11.4798 -2.54074,-8.18202 -1.11701,-7.55229 7.95538,-7.09401 3.42511,0.17302 6.08494,0.776 8.82607,1.64952 7.55286,2.40687 18.11911,7.95253 23.43389,12.37554 2.65468,2.20925 3.55932,3.63885 2.9286,4.48803 -0.44558,0.59992 -1.27965,1.12335 -3.7592,4.55255 -1.52188,2.10475 -1.90398,4.11369 -3.89519,5.66532 -1.05806,0.8245 -3.73757,-0.8467 -3.73757,-0.8467 z"
       id="path20"
       transform="scale(10)"
       sodipodi:nodetypes="sssssssssss" />
    <path
       style="fill:#ffffff;fill-opacity:1;stroke-width:0;stroke-linecap:round;stroke-linejoin:round;stroke-opacity:0.964377"
       d="m 331.75461,866.30404 c -17.98143,-9.36762 -29.27591,-18.75401 -55.72039,-46.43628 -5.90448,-6.18086 -12.84206,-13.37674 -15.48935,-15.81488 -12.71268,-11.70827 -27.24901,-18.59991 -41.12832,-22.93095 -6.57944,-2.05312 -10.94651,-4.43306 -18.97555,-4.83603 -3.53017,-0.17718 -7.24401,-0.39688 -7.35958,-0.58388 -0.34781,-0.56277 8.23997,-10.34304 13.34177,-14.17366 17.58746,-13.20531 45.8091,-12.5209 66.49132,2.22967 4.30599,3.07103 11.50038,10.48838 15.10265,15.06855 10.28114,13.07213 17.28117,28.65471 20.98658,46.46574 1.99215,9.57578 1.23686,10.32191 3.06393,10.14337 1.0682,-0.10439 1.29341,-1.48388 1.72387,-2.76882 1.69074,-5.0468 1.01457,-6.19938 1.01457,-11.45055 0,-4.68327 0.98627,-7.15576 2.41584,-7.15528 1.35699,4.5e-4 12.65272,5.20002 16.23605,7.61511 6.68525,4.5057 9.0417,7.42809 8.02697,9.48872 -0.82165,1.66852 -0.0717,7.61262 -0.61553,17.70965 -0.25965,4.82107 -0.84031,8.96668 -1.09611,11.54342 -0.43892,4.42149 -0.71308,6.79178 -0.37313,8.2225 0.51313,2.15956 -0.0519,1.61964 -7.64559,-2.3364 z"
       id="path21"
       transform="scale(10)"
       sodipodi:nodetypes="ssssssssssssssssssss" />
    <path
       style="fill:#ffffff;fill-opacity:1;stroke-width:0;stroke-linecap:round;stroke-linejoin:round;stroke-opacity:0.964377"
       d="m 637.97528,881.1048 c -9.95278,-0.30288 -12.36169,-1.22469 -18.49917,-2.39301 -4.5231,-0.86102 -7.41864,-1.41565 -14.99554,-3.86615 -5.69414,-1.84158 -6.12804,-0.38802 -6.68808,0.37788 -0.53694,0.73431 -0.72706,-1.44402 -0.86625,-2.92643 -0.17427,-1.85599 -0.11152,-8.92107 0.86358,-13.12969 1.82441,-7.87424 6.24316,-16.26882 12.87134,-23.12029 6.67205,-6.89682 12.81777,-10.19181 21.24515,-12.46504 4.16291,-1.12291 5.19661,-1.72038 14.21806,-1.74541 7.75204,-0.0215 11.54169,0.48229 14.60645,1.14244 9.73123,2.0961 20.83242,6.18379 29.96185,10.72782 5.43113,2.70326 7.26625,4.07589 5.6104,4.21387 -1.32298,0.11025 -3.31693,-0.29436 -3.20541,0.29093 0.0794,0.41684 0.66046,0.71083 1.20234,0.78828 1.258,0.1798 3.9815,2.74271 5.20027,5.37676 0.83683,1.80859 0.72823,3.23633 0.7122,9.39637 -0.0203,7.79694 -0.6476,9.38869 -3.48505,13.53307 -2.16521,3.16249 -5.89332,7.39208 -12.5013,10.54256 -3.80758,1.81533 -3.32587,1.96379 -9.69663,2.81104 -3.97583,0.52874 -24.72014,0.80513 -36.55421,0.445 z"
       id="path22"
       transform="scale(10)"
       sodipodi:nodetypes="ssssssssssssssssssss" />
    <path
       style="fill:#ffffff;fill-opacity:1;stroke-width:0;stroke-linecap:round;stroke-linejoin:round;stroke-opacity:0.964377"
       d="m 139.27164,529.56974 c -11.33583,-1.00184 -20.87447,-3.01397 -29.01091,-7.9094 -1.70604,-1.02646 -3.599,-2.03867 -4.23259,-2.04963 -1.05382,-0.0182 -1.4004,-1.24455 -2.54717,-4.94094 -10.239221,-33.00417 -2.83963,-70.38294 19.10733,-93.21242 10.16555,-10.57432 19.98185,-16.86743 33.10839,-19.26002 6.01177,-1.09577 17.19092,-0.4781 22.49069,0.72819 17.48226,3.97916 26.06269,14.03551 27.34253,29.22051 0.45867,5.44197 -1.09023,12.50113 -3.69152,12.57841 -1.31879,0.0392 -3.20499,-0.67935 -7.06648,-2.10635 -10.56443,-3.90407 -14.17104,-6.147 -32.49623,-6.32617 -15.40627,-0.15063 -17.68489,0.86206 -22.70937,3.16235 -4.17032,1.90923 -5.14474,2.39201 -3.20311,3.66394 0.95135,0.62321 3.62599,1.22512 24.13992,3.24661 14.66725,1.44534 23.05736,1.97642 29.89957,6.57044 9.50371,6.38103 5.63945,4.10047 4.39731,12.56474 -0.52454,3.57436 -0.62939,3.10083 -1.4218,6.81255 -0.39587,1.8543 -1.10686,5.27243 -1.10143,6.39355 0.0133,2.74092 1.46551,5.28725 2.81825,5.8603 1.13331,0.4801 1.30379,0.55339 2.68458,0.8922 1.60079,0.3928 2.7725,-1.22939 4.97674,-1.89662 0.8263,-0.25013 -0.7856,5.1046 -3.75634,8.73802 -1.76516,2.15891 -1.24954,2.53858 -4.64508,1.35356 -14.07679,-4.91268 -19.05561,-5.16276 -33.31845,-6.65356 -9.0981,-0.95097 -9.90535,-0.54922 -23.52339,2.25205 -1.36393,0.28057 -2.98682,3.81226 1.22386,5.01987 0.80694,0.23142 7.03109,1.20257 14.11448,2.0048 26.30446,2.97912 29.77665,4.85031 34.10977,7.81924 5.26176,3.60521 1.28425,2.8381 0.15341,6.88686 -1.53173,5.48409 -1.58799,5.80818 -3.61733,9.0805 -3.06352,4.93992 -7.16347,7.3671 -18.36921,9.61251 -5.24562,1.05111 -18.50496,0.54362 -25.85642,-0.10609 z"
       id="path23"
       transform="scale(10)"
       sodipodi:nodetypes="ssssssssssssssssssssssssssssssss" />
    <path
       style="fill:#ffffff;fill-opacity:1;stroke-width:0;stroke-linecap:round;stroke-linejoin:round;stroke-opacity:0.964377"
       d="M 221.46134,456.35007 C 220.21276,456.05108 213.2,454.89724 213.2,454.7 c 0,-0.0916 2.07666,-4.56461 2.76592,-6.53955 1.76621,-5.0607 2.54025,-7.35453 2.51102,-12.97013 -0.0363,-6.97714 -0.6334,-10.51942 -4.97375,-19.41295 -3.15353,-6.4617 -5.19804,-10.14731 -5.19804,-10.89544 0,-0.51728 2.97257,-1.82735 4.43712,-2.48612 2.67448,-1.20302 3.55574,-2.1758 8.41143,-2.46491 6.42469,-0.38252 12.50697,6.85586 15.88495,16.78175 0.7893,2.3193 1.32748,5.30487 1.86375,8.77354 0.78255,5.06173 0.90169,7.34008 0.91158,13.02764 0.21651,3.23196 -0.0201,6.32883 -1.27977,9.30251 -0.29252,0.65136 -1.27712,2.91032 -2.56851,4.14705 -1.9054,1.82473 -3.8681,2.79549 -6.84715,4.04424 -1.85859,0.77909 -3.70667,1.28844 -7.65721,0.34244 z"
       id="path24"
       transform="scale(10)"
       sodipodi:nodetypes="sssssssssssssss" />
    <ellipse
       style="fill:#ffffff;fill-opacity:1;stroke-width:0;stroke-linecap:round;stroke-linejoin:round;stroke-opacity:0.964377"
       id="path1"
       cx="4869.4839"
       cy="3200.6958"
       rx="66.825317"
       ry="91.821899"
       transform="matrix(0.98340188,0.18144073,-0.19108854,0.9815728,0,0)" />
    <ellipse
       style="display:inline;fill:#ffffff;fill-opacity:1;stroke-width:0;stroke-linecap:round;stroke-linejoin:round;stroke-opacity:0.964377"
       id="path1-6"
       cx="6350.9497"
       cy="3023.3088"
       rx="66.825317"
       ry="91.821899"
       transform="matrix(0.98340188,0.18144073,-0.19108854,0.9815728,0,0)" />
  </g>
</svg>
